<?xml version="1.0" encoding="UTF-8" standalone="no"?><svg xmlns="http://www.w3.org/2000/svg" xmlns:xlink="http://www.w3.org/1999/xlink" contentScriptType="application/ecmascript" contentStyleType="text/css" height="878px" preserveAspectRatio="none" style="width:1694px;height:878px;" version="1.1" viewBox="0 0 1694 878" width="1694px" zoomAndPan="magnify"><defs><filter height="300%" id="f1ks19lp4aaqwp" width="300%" x="-1" y="-1"><feGaussianBlur result="blurOut" stdDeviation="4.0"/><feColorMatrix in="blurOut" result="blurOut2" type="matrix" values="0 0 0 0 0 0 0 0 0 0 0 0 0 0 0 0 0 0 .4 0"/><feOffset dx="8.0" dy="8.0" in="blurOut2" result="blurOut3"/><feBlend in="SourceGraphic" in2="blurOut3" mode="normal"/></filter></defs><g><!--entity modules/infrastructure--><rect fill="#FEFECE" filter="url(#f1ks19lp4aaqwp)" height="72.9766" style="stroke: #A80036; stroke-width: 3.0;" width="360" x="445" y="784"/><rect fill="#FEFECE" height="10" style="stroke: #A80036; stroke-width: 3.0;" width="20" x="435" y="794"/><rect fill="#FEFECE" height="10" style="stroke: #A80036; stroke-width: 3.0;" width="20" x="435" y="836.9766"/><text fill="#000000" font-family="sans-serif" font-size="28" lengthAdjust="spacingAndGlyphs" textLength="320" x="465" y="831.0703">modules/infrastructure</text><!--entity modules/domain--><rect fill="#FEFECE" filter="url(#f1ks19lp4aaqwp)" height="72.9766" style="stroke: #A80036; stroke-width: 3.0;" width="276" x="241" y="208"/><rect fill="#FEFECE" height="10" style="stroke: #A80036; stroke-width: 3.0;" width="20" x="231" y="218"/><rect fill="#FEFECE" height="10" style="stroke: #A80036; stroke-width: 3.0;" width="20" x="231" y="260.9766"/><text fill="#000000" font-family="sans-serif" font-size="28" lengthAdjust="spacingAndGlyphs" textLength="236" x="261" y="255.0703">modules/domain</text><!--entity modules/use-case--><rect fill="#FEFECE" filter="url(#f1ks19lp4aaqwp)" height="72.9766" style="stroke: #A80036; stroke-width: 3.0;" width="296" x="583" y="400"/><rect fill="#FEFECE" height="10" style="stroke: #A80036; stroke-width: 3.0;" width="20" x="573" y="410"/><rect fill="#FEFECE" height="10" style="stroke: #A80036; stroke-width: 3.0;" width="20" x="573" y="452.9766"/><text fill="#000000" font-family="sans-serif" font-size="28" lengthAdjust="spacingAndGlyphs" textLength="256" x="603" y="447.0703">modules/use-case</text><!--entity modules/interface--><rect fill="#FEFECE" filter="url(#f1ks19lp4aaqwp)" height="72.9766" style="stroke: #A80036; stroke-width: 3.0;" width="292" x="441" y="592"/><rect fill="#FEFECE" height="10" style="stroke: #A80036; stroke-width: 3.0;" width="20" x="431" y="602"/><rect fill="#FEFECE" height="10" style="stroke: #A80036; stroke-width: 3.0;" width="20" x="431" y="644.9766"/><text fill="#000000" font-family="sans-serif" font-size="28" lengthAdjust="spacingAndGlyphs" textLength="252" x="461" y="639.0703">modules/interface</text><!--entity applications/api-server--><rect fill="#FEFECE" filter="url(#f1ks19lp4aaqwp)" height="72.9766" style="stroke: #A80036; stroke-width: 3.0;" width="362" x="12" y="784"/><rect fill="#FEFECE" height="10" style="stroke: #A80036; stroke-width: 3.0;" width="20" x="2" y="794"/><rect fill="#FEFECE" height="10" style="stroke: #A80036; stroke-width: 3.0;" width="20" x="2" y="836.9766"/><text fill="#000000" font-family="sans-serif" font-size="28" lengthAdjust="spacingAndGlyphs" textLength="322" x="32" y="831.0703">applications/api-server</text><!--entity contracts/contract-use-case--><rect fill="#FEFECE" filter="url(#f1ks19lp4aaqwp)" height="72.9766" style="stroke: #A80036; stroke-width: 3.0;" width="432" x="535" y="16"/><rect fill="#FEFECE" height="10" style="stroke: #A80036; stroke-width: 3.0;" width="20" x="525" y="26"/><rect fill="#FEFECE" height="10" style="stroke: #A80036; stroke-width: 3.0;" width="20" x="525" y="68.9766"/><text fill="#000000" font-family="sans-serif" font-size="28" lengthAdjust="spacingAndGlyphs" textLength="392" x="555" y="63.0703">contracts/contract-use-case</text><!--entity contracts/contract-interface--><rect fill="#FEFECE" filter="url(#f1ks19lp4aaqwp)" height="72.9766" style="stroke: #A80036; stroke-width: 3.0;" width="428" x="771" y="208"/><rect fill="#FEFECE" height="10" style="stroke: #A80036; stroke-width: 3.0;" width="20" x="761" y="218"/><rect fill="#FEFECE" height="10" style="stroke: #A80036; stroke-width: 3.0;" width="20" x="761" y="260.9766"/><text fill="#000000" font-family="sans-serif" font-size="28" lengthAdjust="spacingAndGlyphs" textLength="388" x="791" y="255.0703">contracts/contract-interface</text><!--entity contracts/contract-http-proto-interface--><rect fill="#FEFECE" filter="url(#f1ks19lp4aaqwp)" height="72.9766" style="stroke: #A80036; stroke-width: 3.0;" width="592" x="1081" y="16"/><rect fill="#FEFECE" height="10" style="stroke: #A80036; stroke-width: 3.0;" width="20" x="1071" y="26"/><rect fill="#FEFECE" height="10" style="stroke: #A80036; stroke-width: 3.0;" width="20" x="1071" y="68.9766"/><text fill="#000000" font-family="sans-serif" font-size="28" lengthAdjust="spacingAndGlyphs" textLength="552" x="1101" y="63.0703">contracts/contract-http-proto-interface</text><!--entity modules/api-client--><rect fill="#FEFECE" filter="url(#f1ks19lp4aaqwp)" height="72.9766" style="stroke: #A80036; stroke-width: 3.0;" width="304" x="1269" y="208"/><rect fill="#FEFECE" height="10" style="stroke: #A80036; stroke-width: 3.0;" width="20" x="1259" y="218"/><rect fill="#FEFECE" height="10" style="stroke: #A80036; stroke-width: 3.0;" width="20" x="1259" y="260.9766"/><text fill="#000000" font-family="sans-serif" font-size="28" lengthAdjust="spacingAndGlyphs" textLength="264" x="1289" y="255.0703">modules/api-client</text><!--link modules/domain to modules/infrastructure--><path d="M371.7174,280.019 C358.241,356.3916 336.7778,537.9048 407,664 C424.0872,694.683 496.7978,743.4088 553.6068,778.2386 " fill="none" id="modules/domain-modules/infrastructure" style="stroke: #A80036; stroke-width: 2.0;"/><polygon fill="#A80036" points="562.5768,783.7044,551.3684,767.5065,554.0373,778.5009,543.0428,781.1697,562.5768,783.7044" style="stroke: #A80036; stroke-width: 2.0;"/><!--link modules/use-case to modules/infrastructure--><path d="M748.7072,472.7706 C768.3402,518.891 794.1338,599.7164 769,664 C751.4304,708.9368 714.176,748.7076 681.9628,776.8456 " fill="none" id="modules/use-case-modules/infrastructure" style="stroke: #A80036; stroke-width: 2.0;"/><polygon fill="#A80036" points="673.8966,783.7446,692.7754,778.1242,681.496,777.2446,682.3755,765.9652,673.8966,783.7446" style="stroke: #A80036; stroke-width: 2.0;"/><!--link modules/interface to modules/infrastructure--><path d="M594.1476,664.1138 C600.2654,695.0252 609.1132,739.7294 615.7664,773.3462 " fill="none" id="modules/interface-modules/infrastructure" style="stroke: #A80036; stroke-width: 2.0;"/><polygon fill="#A80036" points="617.7554,783.3954,622.1086,764.1847,615.814,773.5857,606.413,767.291,617.7554,783.3954" style="stroke: #A80036; stroke-width: 2.0;"/><!--link applications/api-server to modules/infrastructure--><path d="M374.4062,820 C394.4122,820 414.418,820 434.424,820 " fill="none" id="applications/api-server-modules/infrastructure" style="stroke: #A80036; stroke-width: 2.0;"/><polygon fill="#A80036" points="444.8858,820,426.8858,812,434.8858,820,426.8858,828,444.8858,820" style="stroke: #A80036; stroke-width: 2.0;"/><!--link contracts/contract-use-case to modules/use-case--><path d="M746.0432,98.5904 C742.9388,129.5668 739.135,171.1718 737,208 C733.0812,275.5974 731.7206,354.6184 731.249,399.6412 " fill="none" id="contracts/contract-use-case-modules/use-case" style="stroke: #A80036; stroke-width: 2.0; stroke-dasharray: 7.0,7.0;"/><polygon fill="#A80036" points="747.0658,88.5152,737.2892,105.6154,746.0561,98.4641,753.2074,107.231,747.0658,88.5152" style="stroke: #A80036; stroke-width: 2.0;"/><!--link contracts/contract-interface to modules/use-case--><path d="M929.0728,286.2758 C884.2848,320.1312 822.1038,367.1342 779.4248,399.3954 " fill="none" id="contracts/contract-interface-modules/use-case" style="stroke: #A80036; stroke-width: 2.0; stroke-dasharray: 7.0,7.0;"/><polygon fill="#A80036" points="937.2246,280.1138,918.0414,284.5863,929.2473,286.144,927.6896,297.3499,937.2246,280.1138" style="stroke: #A80036; stroke-width: 2.0;"/><!--link modules/domain to modules/use-case--><path d="M454.2282,285.0336 C516.6596,319.087 604.6046,367.057 664.491,399.7224 " fill="none" id="modules/domain-modules/use-case" style="stroke: #A80036; stroke-width: 2.0;"/><polygon fill="#A80036" points="445.2086,280.1138,457.1794,295.7567,453.9874,284.9026,464.8415,281.7106,445.2086,280.1138" style="stroke: #A80036; stroke-width: 2.0;"/><!--link modules/domain to modules/interface--><path d="M403.4356,289.112 C445.1194,366.0666 529.158,521.2146 567.3324,591.6904 " fill="none" id="modules/domain-modules/interface" style="stroke: #A80036; stroke-width: 2.0;"/><polygon fill="#A80036" points="398.5682,280.1258,400.1071,299.7633,403.3311,288.9187,414.1757,292.1427,398.5682,280.1258" style="stroke: #A80036; stroke-width: 2.0;"/><!--link modules/domain to applications/api-server--><path d="M345.2368,289.488 C324.4674,319.4844 298.8752,360.4118 283,400 C228.5994,535.66 204.7434,709.787 196.5492,783.9568 " fill="none" id="modules/domain-applications/api-server" style="stroke: #A80036; stroke-width: 2.0;"/><polygon fill="#A80036" points="351.5116,280.5432,334.6252,290.6847,345.7688,288.7298,347.7237,299.8733,351.5116,280.5432" style="stroke: #A80036; stroke-width: 2.0;"/><!--link contracts/contract-use-case to contracts/contract-interface--><path d="M803.038,94.6978 C844.26,128.521 901.2328,175.268 940.3882,207.3954 " fill="none" id="contracts/contract-use-case-contracts/contract-interface" style="stroke: #A80036; stroke-width: 2.0; stroke-dasharray: 7.0,7.0;"/><polygon fill="#A80036" points="795.0136,88.1138,803.8542,105.7162,802.7443,94.4571,814.0034,93.3471,795.0136,88.1138" style="stroke: #A80036; stroke-width: 2.0;"/><!--link contracts/contract-http-proto-interface to contracts/contract-interface--><path d="M1294.0766,92.6156 C1224.5006,126.6936 1126.032,174.9232 1059.067,207.7224 " fill="none" id="contracts/contract-http-proto-interface-contracts/contract-interface" style="stroke: #A80036; stroke-width: 2.0; stroke-dasharray: 7.0,7.0;"/><polygon fill="#A80036" points="1303.2678,88.1138,1283.5837,88.847,1294.2872,92.5125,1290.6217,103.216,1303.2678,88.1138" style="stroke: #A80036; stroke-width: 2.0;"/><!--link contracts/contract-interface to modules/interface--><path d="M981.6076,290.9752 C975.6922,341.188 959.4706,420.5086 915,472 C865.129,529.7444 789.1252,567.7532 722.8336,591.7826 " fill="none" id="contracts/contract-interface-modules/interface" style="stroke: #A80036; stroke-width: 2.0; stroke-dasharray: 7.0,7.0;"/><polygon fill="#A80036" points="982.7198,280.7224,972.8246,297.7543,981.641,290.664,988.7312,299.4804,982.7198,280.7224" style="stroke: #A80036; stroke-width: 2.0;"/><!--link modules/use-case to modules/interface--><path d="M697.7002,480.3996 C672.4436,514.0752 638.1474,559.8034 614.4534,591.3954 " fill="none" id="modules/use-case-modules/interface" style="stroke: #A80036; stroke-width: 2.0;"/><polygon fill="#A80036" points="703.9148,472.1138,686.7148,481.7138,697.9148,480.1138,699.5148,491.3138,703.9148,472.1138" style="stroke: #A80036; stroke-width: 2.0;"/><!--link modules/interface to applications/api-server--><path d="M503.6534,668.6156 C433.7226,702.6936 334.7514,750.9232 267.4448,783.7224 " fill="none" id="modules/interface-applications/api-server" style="stroke: #A80036; stroke-width: 2.0;"/><polygon fill="#A80036" points="512.8916,664.1138,493.2061,664.8078,503.9022,668.4946,500.2154,679.1908,512.8916,664.1138" style="stroke: #A80036; stroke-width: 2.0;"/><!--link contracts/contract-http-proto-interface to modules/api-client--><path d="M1387.5696,98.1222 C1395.2466,131.6212 1405.4944,176.3388 1412.6114,207.3954 " fill="none" id="contracts/contract-http-proto-interface-modules/api-client" style="stroke: #A80036; stroke-width: 2.0; stroke-dasharray: 7.0,7.0;"/><polygon fill="#A80036" points="1385.276,88.1138,1381.4993,107.4461,1387.51,97.8611,1397.095,103.8717,1385.276,88.1138" style="stroke: #A80036; stroke-width: 2.0;"/><!--
@startuml
[modules/infrastructure]

[modules/domain] -right-> [modules/infrastructure]
[modules/use-case] -right-> [modules/infrastructure]
[modules/interface] -right-> [modules/infrastructure]
[applications/api-server] -right-> [modules/infrastructure]

[modules/use-case] .up.> [contracts/contract-use-case]
[modules/use-case] .up.> [contracts/contract-interface]
[modules/use-case] -up-> [modules/domain]
[modules/interface] -up-> [modules/domain]
[applications/api-server] -up-> [modules/domain]
[contracts/contract-interface] .up.> [contracts/contract-use-case]
[contracts/contract-interface] .up.> [contracts/contract-http-proto-interface]
[modules/interface] .up.> [contracts/contract-interface]
[modules/interface] -up-> [modules/use-case]
[applications/api-server] -up-> [modules/interface]
[modules/api-client] .up.> [contracts/contract-http-proto-interface]


@enduml

PlantUML version 1.2019.05(Sun Apr 21 01:45:36 JST 2019)
(GPL source distribution)
Java Runtime: OpenJDK Runtime Environment
JVM: OpenJDK 64-Bit Server VM
Java Version: 1.8.0_152-release-1343-b28
Operating System: Mac OS X
OS Version: 10.14.5
Default Encoding: UTF-8
Language: ja
Country: JP
--></g></svg>